<mxfile host="Electron" modified="2023-12-05T12:02:53.652Z" agent="Mozilla/5.0 (Windows NT 10.0; Win64; x64) AppleWebKit/537.36 (KHTML, like Gecko) draw.io/22.1.2 Chrome/114.0.5735.289 Electron/25.9.4 Safari/537.36" etag="j_ymBL5GCxdkKuD1aBMR" version="22.1.2" type="device">
  <diagram name="Страница — 1" id="kFqAxZqhLaCWA6rK5BQJ">
    <mxGraphModel dx="847" dy="1934" grid="1" gridSize="10" guides="1" tooltips="1" connect="1" arrows="1" fold="1" page="0" pageScale="1" pageWidth="3300" pageHeight="4681" math="0" shadow="0">
      <root>
        <mxCell id="0" />
        <mxCell id="1" parent="0" />
        <mxCell id="a4hz3h7C-1fevXv9IDib-2" value="Сервер" style="rounded=0;whiteSpace=wrap;html=1;" parent="1" vertex="1">
          <mxGeometry x="1120" y="-1000" width="120" height="4140" as="geometry" />
        </mxCell>
        <mxCell id="a4hz3h7C-1fevXv9IDib-3" value="Клиент" style="rounded=0;whiteSpace=wrap;html=1;" parent="1" vertex="1">
          <mxGeometry x="640" y="-1000" width="120" height="4140" as="geometry" />
        </mxCell>
        <mxCell id="i1aRWqeUmarmmDyaaDoz-25" value="&lt;p style=&quot;margin: 0px ; margin-top: 4px ; text-align: center&quot;&gt;&lt;b style=&quot;text-align: left&quot;&gt;transponder_rerelease&lt;/b&gt;&lt;br&gt;&lt;/p&gt;&lt;hr size=&quot;1&quot;&gt;&lt;div style=&quot;height: 2px&quot;&gt;&lt;/div&gt;" style="verticalAlign=top;align=left;overflow=fill;fontSize=12;fontFamily=Helvetica;html=1;" parent="1" vertex="1">
          <mxGeometry x="840" y="870" width="200" height="330" as="geometry" />
        </mxCell>
        <mxCell id="i1aRWqeUmarmmDyaaDoz-26" value="&lt;p style=&quot;margin: 0px ; margin-top: 6px ; text-align: center&quot;&gt;&lt;span style=&quot;text-align: left&quot;&gt;&lt;b&gt;Request&lt;/b&gt;&lt;/span&gt;&lt;br&gt;&lt;/p&gt;&lt;hr&gt;&lt;p style=&quot;margin: 0px ; margin-left: 8px&quot;&gt;command_name&lt;br&gt;&lt;/p&gt;&lt;p style=&quot;margin: 0px ; margin-left: 8px&quot;&gt;pan&lt;/p&gt;&lt;p style=&quot;margin: 0px ; margin-left: 8px&quot;&gt;&lt;br&gt;&lt;/p&gt;&lt;p style=&quot;margin: 0px ; margin-left: 8px&quot;&gt;&lt;br&gt;&lt;/p&gt;" style="align=left;overflow=fill;html=1;dropTarget=0;" parent="1" vertex="1">
          <mxGeometry x="860" y="900" width="160" height="70" as="geometry" />
        </mxCell>
        <mxCell id="i1aRWqeUmarmmDyaaDoz-27" value="" style="shape=component;jettyWidth=8;jettyHeight=4;" parent="i1aRWqeUmarmmDyaaDoz-26" vertex="1">
          <mxGeometry x="1" width="20" height="20" relative="1" as="geometry">
            <mxPoint x="-24" y="4" as="offset" />
          </mxGeometry>
        </mxCell>
        <mxCell id="i1aRWqeUmarmmDyaaDoz-28" value="&lt;p style=&quot;margin: 0px ; margin-top: 6px ; text-align: center&quot;&gt;&lt;span style=&quot;text-align: left&quot;&gt;&lt;b&gt;Response&lt;/b&gt;&lt;/span&gt;&lt;br&gt;&lt;/p&gt;&lt;hr&gt;&lt;p style=&quot;margin: 0px ; margin-left: 8px&quot;&gt;response_name&lt;/p&gt;&lt;p style=&quot;margin: 0px ; margin-left: 8px&quot;&gt;firmware&lt;/p&gt;&lt;p style=&quot;border-color: var(--border-color); margin: 0px 0px 0px 8px;&quot;&gt;transponder_sn&lt;/p&gt;&lt;p style=&quot;border-color: var(--border-color); margin: 0px 0px 0px 8px;&quot;&gt;transponder_pan&lt;/p&gt;&lt;p style=&quot;border-color: var(--border-color); margin: 0px 0px 0px 8px;&quot;&gt;box_id&lt;/p&gt;&lt;p style=&quot;border-color: var(--border-color); margin: 0px 0px 0px 8px;&quot;&gt;pallet_id&lt;/p&gt;&lt;p style=&quot;border-color: var(--border-color); margin: 0px 0px 0px 8px;&quot;&gt;order_id&lt;/p&gt;&lt;p style=&quot;border-color: var(--border-color); margin: 0px 0px 0px 8px;&quot;&gt;issuer_name&lt;/p&gt;&lt;p style=&quot;border-color: var(--border-color); margin: 0px 0px 0px 8px;&quot;&gt;transponder_model&lt;/p&gt;&lt;p style=&quot;margin: 0px ; margin-left: 8px&quot;&gt;return_status&lt;/p&gt;" style="align=left;overflow=fill;html=1;dropTarget=0;" parent="1" vertex="1">
          <mxGeometry x="860" y="990" width="160" height="190" as="geometry" />
        </mxCell>
        <mxCell id="i1aRWqeUmarmmDyaaDoz-29" value="" style="shape=component;jettyWidth=8;jettyHeight=4;" parent="i1aRWqeUmarmmDyaaDoz-28" vertex="1">
          <mxGeometry x="1" width="20" height="20" relative="1" as="geometry">
            <mxPoint x="-24" y="4" as="offset" />
          </mxGeometry>
        </mxCell>
        <mxCell id="i1aRWqeUmarmmDyaaDoz-37" value="" style="group" parent="1" vertex="1" connectable="0">
          <mxGeometry x="840" y="120" width="200" height="350" as="geometry" />
        </mxCell>
        <mxCell id="i1aRWqeUmarmmDyaaDoz-38" value="&lt;p style=&quot;margin: 0px ; margin-top: 4px ; text-align: center&quot;&gt;&lt;b style=&quot;text-align: left&quot;&gt;transponder_release&lt;/b&gt;&lt;br&gt;&lt;/p&gt;&lt;hr size=&quot;1&quot;&gt;&lt;div style=&quot;height: 2px&quot;&gt;&lt;/div&gt;" style="verticalAlign=top;align=left;overflow=fill;fontSize=12;fontFamily=Helvetica;html=1;" parent="i1aRWqeUmarmmDyaaDoz-37" vertex="1">
          <mxGeometry width="200" height="350" as="geometry" />
        </mxCell>
        <mxCell id="i1aRWqeUmarmmDyaaDoz-39" value="&lt;p style=&quot;margin: 0px ; margin-top: 6px ; text-align: center&quot;&gt;&lt;span style=&quot;text-align: left&quot;&gt;&lt;b&gt;Request&lt;/b&gt;&lt;/span&gt;&lt;br&gt;&lt;/p&gt;&lt;hr&gt;&lt;p style=&quot;margin: 0px ; margin-left: 8px&quot;&gt;command_name&lt;br&gt;login&lt;/p&gt;&lt;p style=&quot;margin: 0px ; margin-left: 8px&quot;&gt;password&lt;/p&gt;&lt;p style=&quot;margin: 0px ; margin-left: 8px&quot;&gt;&lt;br&gt;&lt;/p&gt;" style="align=left;overflow=fill;html=1;dropTarget=0;" parent="i1aRWqeUmarmmDyaaDoz-37" vertex="1">
          <mxGeometry x="20" y="42.42424242424242" width="160" height="84.84848484848484" as="geometry" />
        </mxCell>
        <mxCell id="i1aRWqeUmarmmDyaaDoz-40" value="" style="shape=component;jettyWidth=8;jettyHeight=4;" parent="i1aRWqeUmarmmDyaaDoz-39" vertex="1">
          <mxGeometry x="1" width="20" height="20" relative="1" as="geometry">
            <mxPoint x="-24" y="4" as="offset" />
          </mxGeometry>
        </mxCell>
        <mxCell id="i1aRWqeUmarmmDyaaDoz-41" value="&lt;p style=&quot;margin: 0px ; margin-top: 6px ; text-align: center&quot;&gt;&lt;span style=&quot;text-align: left&quot;&gt;&lt;b&gt;Response&lt;/b&gt;&lt;/span&gt;&lt;br&gt;&lt;/p&gt;&lt;hr&gt;&lt;p style=&quot;margin: 0px ; margin-left: 8px&quot;&gt;response_name&lt;br&gt;&lt;/p&gt;&lt;p style=&quot;margin: 0px ; margin-left: 8px&quot;&gt;&lt;span&gt;firmware&lt;/span&gt;&lt;/p&gt;&lt;p style=&quot;border-color: var(--border-color); margin: 0px 0px 0px 8px;&quot;&gt;transponder_sn&lt;/p&gt;&lt;p style=&quot;border-color: var(--border-color); margin: 0px 0px 0px 8px;&quot;&gt;transponder_pan&lt;/p&gt;&lt;p style=&quot;border-color: var(--border-color); margin: 0px 0px 0px 8px;&quot;&gt;box_id&lt;/p&gt;&lt;p style=&quot;border-color: var(--border-color); margin: 0px 0px 0px 8px;&quot;&gt;pallet_id&lt;/p&gt;&lt;p style=&quot;border-color: var(--border-color); margin: 0px 0px 0px 8px;&quot;&gt;order_id&lt;/p&gt;&lt;p style=&quot;border-color: var(--border-color); margin: 0px 0px 0px 8px;&quot;&gt;issuer_name&lt;/p&gt;&lt;p style=&quot;border-color: var(--border-color); margin: 0px 0px 0px 8px;&quot;&gt;transponder_model&lt;/p&gt;&lt;p style=&quot;border-color: var(--border-color); margin: 0px 0px 0px 8px;&quot;&gt;return_status&lt;/p&gt;" style="align=left;overflow=fill;html=1;dropTarget=0;" parent="i1aRWqeUmarmmDyaaDoz-37" vertex="1">
          <mxGeometry x="20" y="148.48" width="160" height="181.52" as="geometry" />
        </mxCell>
        <mxCell id="i1aRWqeUmarmmDyaaDoz-42" value="" style="shape=component;jettyWidth=8;jettyHeight=4;" parent="i1aRWqeUmarmmDyaaDoz-41" vertex="1">
          <mxGeometry x="1" width="20" height="20" relative="1" as="geometry">
            <mxPoint x="-24" y="4" as="offset" />
          </mxGeometry>
        </mxCell>
        <mxCell id="i1aRWqeUmarmmDyaaDoz-17" value="&lt;p style=&quot;margin: 0px ; margin-top: 4px ; text-align: center&quot;&gt;&lt;b style=&quot;text-align: left&quot;&gt;transponder_release_confirm&lt;/b&gt;&lt;br&gt;&lt;/p&gt;&lt;hr size=&quot;1&quot;&gt;&lt;div style=&quot;height: 2px&quot;&gt;&lt;/div&gt;" style="verticalAlign=top;align=left;overflow=fill;fontSize=12;fontFamily=Helvetica;html=1;" parent="1" vertex="1">
          <mxGeometry x="840" y="530" width="200" height="250" as="geometry" />
        </mxCell>
        <mxCell id="i1aRWqeUmarmmDyaaDoz-18" value="&lt;p style=&quot;margin: 0px ; margin-top: 6px ; text-align: center&quot;&gt;&lt;span style=&quot;text-align: left&quot;&gt;&lt;b&gt;Request&lt;/b&gt;&lt;/span&gt;&lt;br&gt;&lt;/p&gt;&lt;hr&gt;&lt;p style=&quot;margin: 0px ; margin-left: 8px&quot;&gt;&lt;span&gt;command_name&lt;/span&gt;&lt;/p&gt;&lt;p style=&quot;margin: 0px ; margin-left: 8px&quot;&gt;&lt;span&gt;login&lt;/span&gt;&lt;br&gt;&lt;/p&gt;&lt;p style=&quot;margin: 0px ; margin-left: 8px&quot;&gt;password&lt;/p&gt;&lt;p style=&quot;margin: 0px ; margin-left: 8px&quot;&gt;ucid&lt;/p&gt;&lt;p style=&quot;margin: 0px ; margin-left: 8px&quot;&gt;&lt;br&gt;&lt;/p&gt;" style="align=left;overflow=fill;html=1;dropTarget=0;" parent="1" vertex="1">
          <mxGeometry x="860" y="571.4300000000001" width="160" height="98.57" as="geometry" />
        </mxCell>
        <mxCell id="i1aRWqeUmarmmDyaaDoz-19" value="" style="shape=component;jettyWidth=8;jettyHeight=4;" parent="i1aRWqeUmarmmDyaaDoz-18" vertex="1">
          <mxGeometry x="1" width="20" height="20" relative="1" as="geometry">
            <mxPoint x="-24" y="4" as="offset" />
          </mxGeometry>
        </mxCell>
        <mxCell id="i1aRWqeUmarmmDyaaDoz-20" value="&lt;p style=&quot;margin: 0px ; margin-top: 6px ; text-align: center&quot;&gt;&lt;span style=&quot;text-align: left&quot;&gt;&lt;b&gt;Response&lt;/b&gt;&lt;/span&gt;&lt;br&gt;&lt;/p&gt;&lt;hr&gt;&lt;p style=&quot;margin: 0px 0px 0px 8px&quot;&gt;response_name&lt;/p&gt;&lt;p style=&quot;margin: 0px 0px 0px 8px&quot;&gt;return_status&lt;/p&gt;" style="align=left;overflow=fill;html=1;dropTarget=0;" parent="1" vertex="1">
          <mxGeometry x="860" y="690" width="160" height="70" as="geometry" />
        </mxCell>
        <mxCell id="i1aRWqeUmarmmDyaaDoz-21" value="" style="shape=component;jettyWidth=8;jettyHeight=4;" parent="i1aRWqeUmarmmDyaaDoz-20" vertex="1">
          <mxGeometry x="1" width="20" height="20" relative="1" as="geometry">
            <mxPoint x="-24" y="4" as="offset" />
          </mxGeometry>
        </mxCell>
        <mxCell id="i1aRWqeUmarmmDyaaDoz-31" value="&lt;p style=&quot;margin: 0px ; margin-top: 4px ; text-align: center&quot;&gt;&lt;b style=&quot;text-align: left&quot;&gt;transponder_rerelease_confirm&lt;/b&gt;&lt;br&gt;&lt;/p&gt;&lt;hr size=&quot;1&quot;&gt;&lt;div style=&quot;height: 2px&quot;&gt;&lt;/div&gt;" style="verticalAlign=top;align=left;overflow=fill;fontSize=12;fontFamily=Helvetica;html=1;" parent="1" vertex="1">
          <mxGeometry x="840" y="1240" width="200" height="230" as="geometry" />
        </mxCell>
        <mxCell id="i1aRWqeUmarmmDyaaDoz-32" value="&lt;p style=&quot;margin: 0px ; margin-top: 6px ; text-align: center&quot;&gt;&lt;span style=&quot;text-align: left&quot;&gt;&lt;b&gt;Request&lt;/b&gt;&lt;/span&gt;&lt;br&gt;&lt;/p&gt;&lt;hr&gt;&lt;p style=&quot;margin: 0px ; margin-left: 8px&quot;&gt;command_name&lt;/p&gt;&lt;p style=&quot;margin: 0px ; margin-left: 8px&quot;&gt;ucid&lt;/p&gt;&lt;p style=&quot;margin: 0px ; margin-left: 8px&quot;&gt;pan&lt;/p&gt;" style="align=left;overflow=fill;html=1;dropTarget=0;" parent="1" vertex="1">
          <mxGeometry x="860" y="1280" width="160" height="80" as="geometry" />
        </mxCell>
        <mxCell id="i1aRWqeUmarmmDyaaDoz-33" value="" style="shape=component;jettyWidth=8;jettyHeight=4;" parent="i1aRWqeUmarmmDyaaDoz-32" vertex="1">
          <mxGeometry x="1" width="20" height="20" relative="1" as="geometry">
            <mxPoint x="-24" y="4" as="offset" />
          </mxGeometry>
        </mxCell>
        <mxCell id="i1aRWqeUmarmmDyaaDoz-34" value="&lt;p style=&quot;margin: 0px ; margin-top: 6px ; text-align: center&quot;&gt;&lt;span style=&quot;text-align: left&quot;&gt;&lt;b&gt;Response&lt;/b&gt;&lt;/span&gt;&lt;br&gt;&lt;/p&gt;&lt;hr&gt;&lt;p style=&quot;margin: 0px 0px 0px 8px&quot;&gt;response_name&lt;/p&gt;&lt;p style=&quot;margin: 0px 0px 0px 8px&quot;&gt;return_status&lt;/p&gt;" style="align=left;overflow=fill;html=1;dropTarget=0;" parent="1" vertex="1">
          <mxGeometry x="860" y="1380" width="160" height="70" as="geometry" />
        </mxCell>
        <mxCell id="i1aRWqeUmarmmDyaaDoz-35" value="" style="shape=component;jettyWidth=8;jettyHeight=4;" parent="i1aRWqeUmarmmDyaaDoz-34" vertex="1">
          <mxGeometry x="1" width="20" height="20" relative="1" as="geometry">
            <mxPoint x="-24" y="4" as="offset" />
          </mxGeometry>
        </mxCell>
        <mxCell id="i1aRWqeUmarmmDyaaDoz-44" value="&lt;p style=&quot;text-align: center; margin: 4px 0px 0px;&quot;&gt;&lt;b&gt;launch&lt;/b&gt;&lt;/p&gt;&lt;hr size=&quot;1&quot;&gt;&lt;div style=&quot;height: 2px&quot;&gt;&lt;/div&gt;" style="verticalAlign=top;align=left;overflow=fill;fontSize=12;fontFamily=Helvetica;html=1;strokeColor=#000000;" parent="1" vertex="1">
          <mxGeometry x="840" y="-720" width="200" height="330" as="geometry" />
        </mxCell>
        <mxCell id="i1aRWqeUmarmmDyaaDoz-45" value="&lt;p style=&quot;margin: 0px ; margin-top: 6px ; text-align: center&quot;&gt;&lt;span style=&quot;text-align: left&quot;&gt;&lt;b&gt;Request&lt;/b&gt;&lt;/span&gt;&lt;br&gt;&lt;/p&gt;&lt;hr&gt;&lt;p style=&quot;margin: 0px ; margin-left: 8px&quot;&gt;command_name&lt;br&gt;&lt;/p&gt;&lt;p style=&quot;margin: 0px ; margin-left: 8px&quot;&gt;login&lt;/p&gt;&lt;p style=&quot;margin: 0px ; margin-left: 8px&quot;&gt;password&lt;/p&gt;&lt;p style=&quot;margin: 0px ; margin-left: 8px&quot;&gt;&lt;br&gt;&lt;/p&gt;" style="align=left;overflow=fill;html=1;dropTarget=0;" parent="1" vertex="1">
          <mxGeometry x="860" y="-680" width="160" height="80" as="geometry" />
        </mxCell>
        <mxCell id="i1aRWqeUmarmmDyaaDoz-46" value="" style="shape=component;jettyWidth=8;jettyHeight=4;" parent="i1aRWqeUmarmmDyaaDoz-45" vertex="1">
          <mxGeometry x="1" width="20" height="20" relative="1" as="geometry">
            <mxPoint x="-24" y="4" as="offset" />
          </mxGeometry>
        </mxCell>
        <mxCell id="i1aRWqeUmarmmDyaaDoz-47" value="&lt;p style=&quot;margin: 0px ; margin-top: 6px ; text-align: center&quot;&gt;&lt;span style=&quot;text-align: left&quot;&gt;&lt;b&gt;Response&lt;/b&gt;&lt;/span&gt;&lt;br&gt;&lt;/p&gt;&lt;hr&gt;&lt;p style=&quot;margin: 0px 0px 0px 8px&quot;&gt;response_name&lt;/p&gt;&lt;p style=&quot;margin: 0px ; margin-left: 8px&quot;&gt;&lt;span style=&quot;background-color: initial;&quot;&gt;return_status&lt;/span&gt;&lt;br&gt;&lt;/p&gt;&lt;p style=&quot;border-color: var(--border-color); margin: 0px 0px 0px 8px;&quot;&gt;transponder_sn&lt;/p&gt;&lt;p style=&quot;border-color: var(--border-color); margin: 0px 0px 0px 8px;&quot;&gt;transponder_pan&lt;/p&gt;&lt;p style=&quot;border-color: var(--border-color); margin: 0px 0px 0px 8px;&quot;&gt;box_id&lt;/p&gt;&lt;p style=&quot;border-color: var(--border-color); margin: 0px 0px 0px 8px;&quot;&gt;pallet_id&lt;/p&gt;&lt;p style=&quot;border-color: var(--border-color); margin: 0px 0px 0px 8px;&quot;&gt;order_id&lt;/p&gt;&lt;p style=&quot;border-color: var(--border-color); margin: 0px 0px 0px 8px;&quot;&gt;issuer_name&lt;/p&gt;&lt;p style=&quot;border-color: var(--border-color); margin: 0px 0px 0px 8px;&quot;&gt;transponder_model&lt;/p&gt;&lt;p style=&quot;margin: 0px ; margin-left: 8px&quot;&gt;&lt;br&gt;&lt;/p&gt;&lt;p style=&quot;margin: 0px ; margin-left: 8px&quot;&gt;&lt;br&gt;&lt;/p&gt;" style="align=left;overflow=fill;html=1;dropTarget=0;" parent="1" vertex="1">
          <mxGeometry x="860" y="-580" width="160" height="170" as="geometry" />
        </mxCell>
        <mxCell id="i1aRWqeUmarmmDyaaDoz-48" value="" style="shape=component;jettyWidth=8;jettyHeight=4;" parent="i1aRWqeUmarmmDyaaDoz-47" vertex="1">
          <mxGeometry x="1" width="20" height="20" relative="1" as="geometry">
            <mxPoint x="-24" y="4" as="offset" />
          </mxGeometry>
        </mxCell>
        <mxCell id="i1aRWqeUmarmmDyaaDoz-55" value="" style="shape=flexArrow;endArrow=classic;html=1;fontSize=10;" parent="1" edge="1">
          <mxGeometry width="50" height="50" relative="1" as="geometry">
            <mxPoint x="760" y="210" as="sourcePoint" />
            <mxPoint x="840" y="210" as="targetPoint" />
          </mxGeometry>
        </mxCell>
        <mxCell id="i1aRWqeUmarmmDyaaDoz-56" value="" style="shape=flexArrow;endArrow=classic;html=1;fontSize=10;" parent="1" edge="1">
          <mxGeometry width="50" height="50" relative="1" as="geometry">
            <mxPoint x="1040" y="210.0000000000001" as="sourcePoint" />
            <mxPoint x="1119.9999999999998" y="210.0000000000001" as="targetPoint" />
          </mxGeometry>
        </mxCell>
        <mxCell id="i1aRWqeUmarmmDyaaDoz-57" value="" style="shape=flexArrow;endArrow=classic;html=1;fontSize=10;" parent="1" edge="1">
          <mxGeometry width="50" height="50" relative="1" as="geometry">
            <mxPoint x="1120" y="360" as="sourcePoint" />
            <mxPoint x="1039.9999999999998" y="360.0000000000001" as="targetPoint" />
          </mxGeometry>
        </mxCell>
        <mxCell id="i1aRWqeUmarmmDyaaDoz-58" value="" style="shape=flexArrow;endArrow=classic;html=1;fontSize=10;" parent="1" edge="1">
          <mxGeometry width="50" height="50" relative="1" as="geometry">
            <mxPoint x="839.9999999999998" y="360.0000000000001" as="sourcePoint" />
            <mxPoint x="759.9999999999998" y="360.0000000000001" as="targetPoint" />
          </mxGeometry>
        </mxCell>
        <mxCell id="i1aRWqeUmarmmDyaaDoz-60" value="" style="shape=flexArrow;endArrow=classic;html=1;fontSize=10;" parent="1" edge="1">
          <mxGeometry width="50" height="50" relative="1" as="geometry">
            <mxPoint x="1119.9999999999998" y="724.5000000000001" as="sourcePoint" />
            <mxPoint x="1039.9999999999998" y="724.5000000000001" as="targetPoint" />
          </mxGeometry>
        </mxCell>
        <mxCell id="i1aRWqeUmarmmDyaaDoz-62" value="" style="shape=flexArrow;endArrow=classic;html=1;fontSize=10;" parent="1" edge="1">
          <mxGeometry width="50" height="50" relative="1" as="geometry">
            <mxPoint x="839.9999999999998" y="720.0000000000001" as="sourcePoint" />
            <mxPoint x="759.9999999999998" y="720.0000000000001" as="targetPoint" />
          </mxGeometry>
        </mxCell>
        <mxCell id="i1aRWqeUmarmmDyaaDoz-64" value="" style="shape=flexArrow;endArrow=classic;html=1;fontSize=10;" parent="1" edge="1">
          <mxGeometry width="50" height="50" relative="1" as="geometry">
            <mxPoint x="839.9999999999998" y="1084.5" as="sourcePoint" />
            <mxPoint x="759.9999999999998" y="1084.5" as="targetPoint" />
          </mxGeometry>
        </mxCell>
        <mxCell id="i1aRWqeUmarmmDyaaDoz-65" value="" style="shape=flexArrow;endArrow=classic;html=1;fontSize=10;" parent="1" edge="1">
          <mxGeometry width="50" height="50" relative="1" as="geometry">
            <mxPoint x="1120" y="1084.5" as="sourcePoint" />
            <mxPoint x="1040" y="1084.5" as="targetPoint" />
          </mxGeometry>
        </mxCell>
        <mxCell id="i1aRWqeUmarmmDyaaDoz-66" value="" style="shape=flexArrow;endArrow=classic;html=1;fontSize=10;" parent="1" edge="1">
          <mxGeometry width="50" height="50" relative="1" as="geometry">
            <mxPoint x="1120" y="1414.5" as="sourcePoint" />
            <mxPoint x="1040" y="1414.5" as="targetPoint" />
          </mxGeometry>
        </mxCell>
        <mxCell id="i1aRWqeUmarmmDyaaDoz-67" value="" style="shape=flexArrow;endArrow=classic;html=1;fontSize=10;" parent="1" edge="1">
          <mxGeometry width="50" height="50" relative="1" as="geometry">
            <mxPoint x="840" y="1420" as="sourcePoint" />
            <mxPoint x="760" y="1420" as="targetPoint" />
          </mxGeometry>
        </mxCell>
        <mxCell id="i1aRWqeUmarmmDyaaDoz-68" value="" style="shape=flexArrow;endArrow=classic;html=1;fontSize=10;" parent="1" edge="1">
          <mxGeometry width="50" height="50" relative="1" as="geometry">
            <mxPoint x="1120" y="-545.2600000000002" as="sourcePoint" />
            <mxPoint x="1040" y="-545.2600000000002" as="targetPoint" />
          </mxGeometry>
        </mxCell>
        <mxCell id="i1aRWqeUmarmmDyaaDoz-69" value="" style="shape=flexArrow;endArrow=classic;html=1;fontSize=10;" parent="1" edge="1">
          <mxGeometry width="50" height="50" relative="1" as="geometry">
            <mxPoint x="840" y="-545.2600000000002" as="sourcePoint" />
            <mxPoint x="760" y="-545.2600000000002" as="targetPoint" />
          </mxGeometry>
        </mxCell>
        <mxCell id="i1aRWqeUmarmmDyaaDoz-71" value="" style="shape=flexArrow;endArrow=classic;html=1;fontSize=10;" parent="1" edge="1">
          <mxGeometry width="50" height="50" relative="1" as="geometry">
            <mxPoint x="760" y="620.21" as="sourcePoint" />
            <mxPoint x="840" y="620.21" as="targetPoint" />
          </mxGeometry>
        </mxCell>
        <mxCell id="i1aRWqeUmarmmDyaaDoz-72" value="" style="shape=flexArrow;endArrow=classic;html=1;fontSize=10;" parent="1" edge="1">
          <mxGeometry width="50" height="50" relative="1" as="geometry">
            <mxPoint x="760" y="934.4999999999999" as="sourcePoint" />
            <mxPoint x="840" y="934.4999999999999" as="targetPoint" />
          </mxGeometry>
        </mxCell>
        <mxCell id="i1aRWqeUmarmmDyaaDoz-73" value="" style="shape=flexArrow;endArrow=classic;html=1;fontSize=10;" parent="1" edge="1">
          <mxGeometry width="50" height="50" relative="1" as="geometry">
            <mxPoint x="760" y="1319.5" as="sourcePoint" />
            <mxPoint x="840" y="1319.5" as="targetPoint" />
          </mxGeometry>
        </mxCell>
        <mxCell id="i1aRWqeUmarmmDyaaDoz-74" value="" style="shape=flexArrow;endArrow=classic;html=1;fontSize=10;" parent="1" edge="1">
          <mxGeometry width="50" height="50" relative="1" as="geometry">
            <mxPoint x="760" y="-640.5900000000001" as="sourcePoint" />
            <mxPoint x="840" y="-640.5900000000001" as="targetPoint" />
          </mxGeometry>
        </mxCell>
        <mxCell id="i1aRWqeUmarmmDyaaDoz-75" value="" style="shape=flexArrow;endArrow=classic;html=1;fontSize=10;" parent="1" edge="1">
          <mxGeometry width="50" height="50" relative="1" as="geometry">
            <mxPoint x="1040" y="-640.5900000000001" as="sourcePoint" />
            <mxPoint x="1120" y="-640.5900000000001" as="targetPoint" />
          </mxGeometry>
        </mxCell>
        <mxCell id="i1aRWqeUmarmmDyaaDoz-76" value="" style="shape=flexArrow;endArrow=classic;html=1;fontSize=10;" parent="1" edge="1">
          <mxGeometry width="50" height="50" relative="1" as="geometry">
            <mxPoint x="1040" y="1319.4999999999998" as="sourcePoint" />
            <mxPoint x="1120" y="1319.4999999999998" as="targetPoint" />
          </mxGeometry>
        </mxCell>
        <mxCell id="i1aRWqeUmarmmDyaaDoz-77" value="" style="shape=flexArrow;endArrow=classic;html=1;fontSize=10;" parent="1" edge="1">
          <mxGeometry width="50" height="50" relative="1" as="geometry">
            <mxPoint x="1040" y="934.4999999999999" as="sourcePoint" />
            <mxPoint x="1120" y="934.4999999999999" as="targetPoint" />
          </mxGeometry>
        </mxCell>
        <mxCell id="i1aRWqeUmarmmDyaaDoz-78" value="" style="shape=flexArrow;endArrow=classic;html=1;fontSize=10;" parent="1" edge="1">
          <mxGeometry width="50" height="50" relative="1" as="geometry">
            <mxPoint x="1040" y="620.2199999999999" as="sourcePoint" />
            <mxPoint x="1120" y="620.2199999999999" as="targetPoint" />
          </mxGeometry>
        </mxCell>
        <mxCell id="1n4xFFLPmtJnN53PhAfy-1" value="&lt;p style=&quot;text-align: center; margin: 4px 0px 0px;&quot;&gt;&lt;b&gt;echo&lt;/b&gt;&lt;/p&gt;&lt;hr size=&quot;1&quot;&gt;&lt;div style=&quot;height: 2px&quot;&gt;&lt;/div&gt;" style="verticalAlign=top;align=left;overflow=fill;fontSize=12;fontFamily=Helvetica;html=1;" parent="1" vertex="1">
          <mxGeometry x="840" y="-1000" width="200" height="240" as="geometry" />
        </mxCell>
        <mxCell id="1n4xFFLPmtJnN53PhAfy-2" value="&lt;p style=&quot;margin: 0px ; margin-top: 6px ; text-align: center&quot;&gt;&lt;span style=&quot;text-align: left&quot;&gt;&lt;b&gt;Request&lt;/b&gt;&lt;/span&gt;&lt;br&gt;&lt;/p&gt;&lt;hr&gt;&lt;p style=&quot;margin: 0px ; margin-left: 8px&quot;&gt;command_name&lt;br&gt;&lt;/p&gt;&lt;p style=&quot;margin: 0px ; margin-left: 8px&quot;&gt;data&lt;/p&gt;&lt;p style=&quot;margin: 0px ; margin-left: 8px&quot;&gt;&lt;br&gt;&lt;/p&gt;" style="align=left;overflow=fill;html=1;dropTarget=0;" parent="1" vertex="1">
          <mxGeometry x="860" y="-960" width="160" height="70" as="geometry" />
        </mxCell>
        <mxCell id="1n4xFFLPmtJnN53PhAfy-3" value="" style="shape=component;jettyWidth=8;jettyHeight=4;" parent="1n4xFFLPmtJnN53PhAfy-2" vertex="1">
          <mxGeometry x="1" width="20" height="20" relative="1" as="geometry">
            <mxPoint x="-24" y="4" as="offset" />
          </mxGeometry>
        </mxCell>
        <mxCell id="1n4xFFLPmtJnN53PhAfy-4" value="&lt;p style=&quot;margin: 0px ; margin-top: 6px ; text-align: center&quot;&gt;&lt;span style=&quot;text-align: left&quot;&gt;&lt;b&gt;Response&lt;/b&gt;&lt;/span&gt;&lt;br&gt;&lt;/p&gt;&lt;hr&gt;&lt;p style=&quot;margin: 0px 0px 0px 8px&quot;&gt;response_name&lt;/p&gt;&lt;p style=&quot;margin: 0px ; margin-left: 8px&quot;&gt;data&lt;br&gt;&lt;/p&gt;&lt;p style=&quot;margin: 0px ; margin-left: 8px&quot;&gt;return_status&lt;/p&gt;&lt;p style=&quot;margin: 0px ; margin-left: 8px&quot;&gt;&lt;br&gt;&lt;/p&gt;&lt;p style=&quot;margin: 0px ; margin-left: 8px&quot;&gt;&lt;br&gt;&lt;/p&gt;" style="align=left;overflow=fill;html=1;dropTarget=0;" parent="1" vertex="1">
          <mxGeometry x="860" y="-870" width="160" height="90" as="geometry" />
        </mxCell>
        <mxCell id="1n4xFFLPmtJnN53PhAfy-5" value="" style="shape=component;jettyWidth=8;jettyHeight=4;" parent="1n4xFFLPmtJnN53PhAfy-4" vertex="1">
          <mxGeometry x="1" width="20" height="20" relative="1" as="geometry">
            <mxPoint x="-24" y="4" as="offset" />
          </mxGeometry>
        </mxCell>
        <mxCell id="1n4xFFLPmtJnN53PhAfy-6" value="" style="shape=flexArrow;endArrow=classic;html=1;fontSize=10;" parent="1" edge="1">
          <mxGeometry width="50" height="50" relative="1" as="geometry">
            <mxPoint x="1120" y="-835.3400000000001" as="sourcePoint" />
            <mxPoint x="1040" y="-835.3400000000001" as="targetPoint" />
          </mxGeometry>
        </mxCell>
        <mxCell id="1n4xFFLPmtJnN53PhAfy-7" value="" style="shape=flexArrow;endArrow=classic;html=1;fontSize=10;" parent="1" edge="1">
          <mxGeometry width="50" height="50" relative="1" as="geometry">
            <mxPoint x="840" y="-835.3400000000001" as="sourcePoint" />
            <mxPoint x="760" y="-835.3400000000001" as="targetPoint" />
          </mxGeometry>
        </mxCell>
        <mxCell id="1n4xFFLPmtJnN53PhAfy-8" value="" style="shape=flexArrow;endArrow=classic;html=1;fontSize=10;" parent="1" edge="1">
          <mxGeometry width="50" height="50" relative="1" as="geometry">
            <mxPoint x="760" y="-925.3400000000001" as="sourcePoint" />
            <mxPoint x="840" y="-925.3400000000001" as="targetPoint" />
          </mxGeometry>
        </mxCell>
        <mxCell id="1n4xFFLPmtJnN53PhAfy-9" value="" style="shape=flexArrow;endArrow=classic;html=1;fontSize=10;" parent="1" edge="1">
          <mxGeometry width="50" height="50" relative="1" as="geometry">
            <mxPoint x="1040" y="-925.3400000000001" as="sourcePoint" />
            <mxPoint x="1120" y="-925.3400000000001" as="targetPoint" />
          </mxGeometry>
        </mxCell>
        <mxCell id="IBMiSXN4Z4BnC2q4ii5H-1" value="&lt;p style=&quot;text-align: center ; margin: 4px 0px 0px&quot;&gt;&lt;b&gt;box_sticker_print&lt;/b&gt;&lt;/p&gt;&lt;hr size=&quot;1&quot;&gt;&lt;div style=&quot;height: 2px&quot;&gt;&lt;/div&gt;" style="verticalAlign=top;align=left;overflow=fill;fontSize=12;fontFamily=Helvetica;html=1;" parent="1" vertex="1">
          <mxGeometry x="840" y="1920" width="200" height="220" as="geometry" />
        </mxCell>
        <mxCell id="IBMiSXN4Z4BnC2q4ii5H-2" value="&lt;p style=&quot;margin: 0px ; margin-top: 6px ; text-align: center&quot;&gt;&lt;span style=&quot;text-align: left&quot;&gt;&lt;b&gt;Request&lt;/b&gt;&lt;/span&gt;&lt;br&gt;&lt;/p&gt;&lt;hr&gt;&lt;p style=&quot;margin: 0px ; margin-left: 8px&quot;&gt;command_name&lt;br&gt;&lt;/p&gt;&lt;p style=&quot;margin: 0px ; margin-left: 8px&quot;&gt;pan&lt;/p&gt;&lt;p style=&quot;margin: 0px ; margin-left: 8px&quot;&gt;&lt;br&gt;&lt;/p&gt;&lt;p style=&quot;margin: 0px ; margin-left: 8px&quot;&gt;&lt;br&gt;&lt;/p&gt;" style="align=left;overflow=fill;html=1;dropTarget=0;" parent="1" vertex="1">
          <mxGeometry x="860" y="1960" width="160" height="70" as="geometry" />
        </mxCell>
        <mxCell id="IBMiSXN4Z4BnC2q4ii5H-3" value="" style="shape=component;jettyWidth=8;jettyHeight=4;" parent="IBMiSXN4Z4BnC2q4ii5H-2" vertex="1">
          <mxGeometry x="1" width="20" height="20" relative="1" as="geometry">
            <mxPoint x="-24" y="4" as="offset" />
          </mxGeometry>
        </mxCell>
        <mxCell id="IBMiSXN4Z4BnC2q4ii5H-4" value="&lt;p style=&quot;margin: 0px ; margin-top: 6px ; text-align: center&quot;&gt;&lt;span style=&quot;text-align: left&quot;&gt;&lt;b&gt;Response&lt;/b&gt;&lt;/span&gt;&lt;br&gt;&lt;/p&gt;&lt;hr&gt;&lt;p style=&quot;margin: 0px 0px 0px 8px&quot;&gt;response_name&lt;/p&gt;&lt;p style=&quot;margin: 0px ; margin-left: 8px&quot;&gt;return_status&lt;/p&gt;&lt;p style=&quot;margin: 0px ; margin-left: 8px&quot;&gt;&lt;br&gt;&lt;/p&gt;&lt;p style=&quot;margin: 0px ; margin-left: 8px&quot;&gt;&lt;br&gt;&lt;/p&gt;&lt;p style=&quot;margin: 0px ; margin-left: 8px&quot;&gt;&lt;br&gt;&lt;/p&gt;" style="align=left;overflow=fill;html=1;dropTarget=0;" parent="1" vertex="1">
          <mxGeometry x="860" y="2050" width="160" height="70" as="geometry" />
        </mxCell>
        <mxCell id="IBMiSXN4Z4BnC2q4ii5H-5" value="" style="shape=component;jettyWidth=8;jettyHeight=4;" parent="IBMiSXN4Z4BnC2q4ii5H-4" vertex="1">
          <mxGeometry x="1" width="20" height="20" relative="1" as="geometry">
            <mxPoint x="-24" y="4" as="offset" />
          </mxGeometry>
        </mxCell>
        <mxCell id="IBMiSXN4Z4BnC2q4ii5H-6" value="" style="shape=flexArrow;endArrow=classic;html=1;fontSize=10;" parent="1" edge="1">
          <mxGeometry width="50" height="50" relative="1" as="geometry">
            <mxPoint x="1120" y="2084.66" as="sourcePoint" />
            <mxPoint x="1040" y="2084.66" as="targetPoint" />
          </mxGeometry>
        </mxCell>
        <mxCell id="IBMiSXN4Z4BnC2q4ii5H-7" value="" style="shape=flexArrow;endArrow=classic;html=1;fontSize=10;" parent="1" edge="1">
          <mxGeometry width="50" height="50" relative="1" as="geometry">
            <mxPoint x="840" y="2084.66" as="sourcePoint" />
            <mxPoint x="760" y="2084.66" as="targetPoint" />
          </mxGeometry>
        </mxCell>
        <mxCell id="IBMiSXN4Z4BnC2q4ii5H-8" value="" style="shape=flexArrow;endArrow=classic;html=1;fontSize=10;" parent="1" edge="1">
          <mxGeometry width="50" height="50" relative="1" as="geometry">
            <mxPoint x="760" y="1994.6599999999999" as="sourcePoint" />
            <mxPoint x="840" y="1994.6599999999999" as="targetPoint" />
          </mxGeometry>
        </mxCell>
        <mxCell id="IBMiSXN4Z4BnC2q4ii5H-9" value="" style="shape=flexArrow;endArrow=classic;html=1;fontSize=10;" parent="1" edge="1">
          <mxGeometry width="50" height="50" relative="1" as="geometry">
            <mxPoint x="1040" y="1994.6599999999999" as="sourcePoint" />
            <mxPoint x="1120" y="1994.6599999999999" as="targetPoint" />
          </mxGeometry>
        </mxCell>
        <mxCell id="IBMiSXN4Z4BnC2q4ii5H-11" value="&lt;p style=&quot;text-align: center ; margin: 4px 0px 0px&quot;&gt;&lt;b&gt;pallet_sticker_print&lt;/b&gt;&lt;/p&gt;&lt;hr size=&quot;1&quot;&gt;&lt;div style=&quot;height: 2px&quot;&gt;&lt;/div&gt;" style="verticalAlign=top;align=left;overflow=fill;fontSize=12;fontFamily=Helvetica;html=1;" parent="1" vertex="1">
          <mxGeometry x="840" y="2430" width="200" height="220" as="geometry" />
        </mxCell>
        <mxCell id="IBMiSXN4Z4BnC2q4ii5H-12" value="&lt;p style=&quot;margin: 0px ; margin-top: 6px ; text-align: center&quot;&gt;&lt;span style=&quot;text-align: left&quot;&gt;&lt;b&gt;Request&lt;/b&gt;&lt;/span&gt;&lt;br&gt;&lt;/p&gt;&lt;hr&gt;&lt;p style=&quot;margin: 0px ; margin-left: 8px&quot;&gt;command_name&lt;br&gt;&lt;/p&gt;&lt;p style=&quot;margin: 0px ; margin-left: 8px&quot;&gt;pan&lt;/p&gt;&lt;p style=&quot;margin: 0px ; margin-left: 8px&quot;&gt;&lt;br&gt;&lt;/p&gt;&lt;p style=&quot;margin: 0px ; margin-left: 8px&quot;&gt;&lt;br&gt;&lt;/p&gt;" style="align=left;overflow=fill;html=1;dropTarget=0;" parent="1" vertex="1">
          <mxGeometry x="860" y="2470" width="160" height="70" as="geometry" />
        </mxCell>
        <mxCell id="IBMiSXN4Z4BnC2q4ii5H-13" value="" style="shape=component;jettyWidth=8;jettyHeight=4;" parent="IBMiSXN4Z4BnC2q4ii5H-12" vertex="1">
          <mxGeometry x="1" width="20" height="20" relative="1" as="geometry">
            <mxPoint x="-24" y="4" as="offset" />
          </mxGeometry>
        </mxCell>
        <mxCell id="IBMiSXN4Z4BnC2q4ii5H-14" value="&lt;p style=&quot;margin: 0px ; margin-top: 6px ; text-align: center&quot;&gt;&lt;span style=&quot;text-align: left&quot;&gt;&lt;b&gt;Response&lt;/b&gt;&lt;/span&gt;&lt;br&gt;&lt;/p&gt;&lt;hr&gt;&lt;p style=&quot;margin: 0px 0px 0px 8px&quot;&gt;response_name&lt;/p&gt;&lt;p style=&quot;margin: 0px ; margin-left: 8px&quot;&gt;return_status&lt;/p&gt;&lt;p style=&quot;margin: 0px ; margin-left: 8px&quot;&gt;&lt;br&gt;&lt;/p&gt;&lt;p style=&quot;margin: 0px ; margin-left: 8px&quot;&gt;&lt;br&gt;&lt;/p&gt;&lt;p style=&quot;margin: 0px ; margin-left: 8px&quot;&gt;&lt;br&gt;&lt;/p&gt;" style="align=left;overflow=fill;html=1;dropTarget=0;" parent="1" vertex="1">
          <mxGeometry x="860" y="2560" width="160" height="70" as="geometry" />
        </mxCell>
        <mxCell id="IBMiSXN4Z4BnC2q4ii5H-15" value="" style="shape=component;jettyWidth=8;jettyHeight=4;" parent="IBMiSXN4Z4BnC2q4ii5H-14" vertex="1">
          <mxGeometry x="1" width="20" height="20" relative="1" as="geometry">
            <mxPoint x="-24" y="4" as="offset" />
          </mxGeometry>
        </mxCell>
        <mxCell id="IBMiSXN4Z4BnC2q4ii5H-16" value="" style="shape=flexArrow;endArrow=classic;html=1;fontSize=10;" parent="1" edge="1">
          <mxGeometry width="50" height="50" relative="1" as="geometry">
            <mxPoint x="1120" y="2594.66" as="sourcePoint" />
            <mxPoint x="1040" y="2594.66" as="targetPoint" />
          </mxGeometry>
        </mxCell>
        <mxCell id="IBMiSXN4Z4BnC2q4ii5H-17" value="" style="shape=flexArrow;endArrow=classic;html=1;fontSize=10;" parent="1" edge="1">
          <mxGeometry width="50" height="50" relative="1" as="geometry">
            <mxPoint x="840" y="2594.66" as="sourcePoint" />
            <mxPoint x="760" y="2594.66" as="targetPoint" />
          </mxGeometry>
        </mxCell>
        <mxCell id="IBMiSXN4Z4BnC2q4ii5H-18" value="" style="shape=flexArrow;endArrow=classic;html=1;fontSize=10;" parent="1" edge="1">
          <mxGeometry width="50" height="50" relative="1" as="geometry">
            <mxPoint x="760" y="2504.66" as="sourcePoint" />
            <mxPoint x="840" y="2504.66" as="targetPoint" />
          </mxGeometry>
        </mxCell>
        <mxCell id="IBMiSXN4Z4BnC2q4ii5H-19" value="" style="shape=flexArrow;endArrow=classic;html=1;fontSize=10;" parent="1" edge="1">
          <mxGeometry width="50" height="50" relative="1" as="geometry">
            <mxPoint x="1040" y="2504.66" as="sourcePoint" />
            <mxPoint x="1120" y="2504.66" as="targetPoint" />
          </mxGeometry>
        </mxCell>
        <mxCell id="IBMiSXN4Z4BnC2q4ii5H-20" value="&lt;p style=&quot;text-align: center ; margin: 4px 0px 0px&quot;&gt;&lt;b&gt;last_box_sticker_print&lt;/b&gt;&lt;/p&gt;&lt;hr size=&quot;1&quot;&gt;&lt;div style=&quot;height: 2px&quot;&gt;&lt;/div&gt;" style="verticalAlign=top;align=left;overflow=fill;fontSize=12;fontFamily=Helvetica;html=1;" parent="1" vertex="1">
          <mxGeometry x="840" y="2180" width="200" height="209" as="geometry" />
        </mxCell>
        <mxCell id="IBMiSXN4Z4BnC2q4ii5H-21" value="&lt;p style=&quot;margin: 0px ; margin-top: 6px ; text-align: center&quot;&gt;&lt;span style=&quot;text-align: left&quot;&gt;&lt;b&gt;Request&lt;/b&gt;&lt;/span&gt;&lt;br&gt;&lt;/p&gt;&lt;hr&gt;&lt;p style=&quot;margin: 0px ; margin-left: 8px&quot;&gt;command_name&lt;/p&gt;&lt;p style=&quot;margin: 0px ; margin-left: 8px&quot;&gt;&lt;br&gt;&lt;/p&gt;&lt;p style=&quot;margin: 0px ; margin-left: 8px&quot;&gt;&lt;br&gt;&lt;/p&gt;" style="align=left;overflow=fill;html=1;dropTarget=0;" parent="1" vertex="1">
          <mxGeometry x="860" y="2220" width="160" height="59" as="geometry" />
        </mxCell>
        <mxCell id="IBMiSXN4Z4BnC2q4ii5H-22" value="" style="shape=component;jettyWidth=8;jettyHeight=4;" parent="IBMiSXN4Z4BnC2q4ii5H-21" vertex="1">
          <mxGeometry x="1" width="20" height="20" relative="1" as="geometry">
            <mxPoint x="-24" y="4" as="offset" />
          </mxGeometry>
        </mxCell>
        <mxCell id="IBMiSXN4Z4BnC2q4ii5H-23" value="&lt;p style=&quot;margin: 0px ; margin-top: 6px ; text-align: center&quot;&gt;&lt;span style=&quot;text-align: left&quot;&gt;&lt;b&gt;Response&lt;/b&gt;&lt;/span&gt;&lt;br&gt;&lt;/p&gt;&lt;hr&gt;&lt;p style=&quot;margin: 0px 0px 0px 8px&quot;&gt;response_name&lt;/p&gt;&lt;p style=&quot;margin: 0px ; margin-left: 8px&quot;&gt;return_status&lt;/p&gt;&lt;p style=&quot;margin: 0px ; margin-left: 8px&quot;&gt;&lt;br&gt;&lt;/p&gt;&lt;p style=&quot;margin: 0px ; margin-left: 8px&quot;&gt;&lt;br&gt;&lt;/p&gt;&lt;p style=&quot;margin: 0px ; margin-left: 8px&quot;&gt;&lt;br&gt;&lt;/p&gt;" style="align=left;overflow=fill;html=1;dropTarget=0;" parent="1" vertex="1">
          <mxGeometry x="860" y="2299" width="160" height="70" as="geometry" />
        </mxCell>
        <mxCell id="IBMiSXN4Z4BnC2q4ii5H-24" value="" style="shape=component;jettyWidth=8;jettyHeight=4;" parent="IBMiSXN4Z4BnC2q4ii5H-23" vertex="1">
          <mxGeometry x="1" width="20" height="20" relative="1" as="geometry">
            <mxPoint x="-24" y="4" as="offset" />
          </mxGeometry>
        </mxCell>
        <mxCell id="IBMiSXN4Z4BnC2q4ii5H-25" value="" style="shape=flexArrow;endArrow=classic;html=1;fontSize=10;" parent="1" edge="1">
          <mxGeometry width="50" height="50" relative="1" as="geometry">
            <mxPoint x="1120" y="2333.5" as="sourcePoint" />
            <mxPoint x="1040" y="2333.5" as="targetPoint" />
          </mxGeometry>
        </mxCell>
        <mxCell id="IBMiSXN4Z4BnC2q4ii5H-26" value="" style="shape=flexArrow;endArrow=classic;html=1;fontSize=10;" parent="1" edge="1">
          <mxGeometry width="50" height="50" relative="1" as="geometry">
            <mxPoint x="840" y="2333.5" as="sourcePoint" />
            <mxPoint x="760" y="2333.5" as="targetPoint" />
          </mxGeometry>
        </mxCell>
        <mxCell id="IBMiSXN4Z4BnC2q4ii5H-27" value="" style="shape=flexArrow;endArrow=classic;html=1;fontSize=10;" parent="1" edge="1">
          <mxGeometry width="50" height="50" relative="1" as="geometry">
            <mxPoint x="760" y="2249" as="sourcePoint" />
            <mxPoint x="840" y="2249" as="targetPoint" />
          </mxGeometry>
        </mxCell>
        <mxCell id="IBMiSXN4Z4BnC2q4ii5H-28" value="" style="shape=flexArrow;endArrow=classic;html=1;fontSize=10;" parent="1" edge="1">
          <mxGeometry width="50" height="50" relative="1" as="geometry">
            <mxPoint x="1040" y="2249" as="sourcePoint" />
            <mxPoint x="1120" y="2249" as="targetPoint" />
          </mxGeometry>
        </mxCell>
        <mxCell id="IBMiSXN4Z4BnC2q4ii5H-29" value="&lt;p style=&quot;text-align: center ; margin: 4px 0px 0px&quot;&gt;&lt;b&gt;last_pallet_sticker_print&lt;/b&gt;&lt;/p&gt;&lt;hr size=&quot;1&quot;&gt;&lt;div style=&quot;height: 2px&quot;&gt;&lt;/div&gt;" style="verticalAlign=top;align=left;overflow=fill;fontSize=12;fontFamily=Helvetica;html=1;" parent="1" vertex="1">
          <mxGeometry x="840" y="2700" width="200" height="209" as="geometry" />
        </mxCell>
        <mxCell id="IBMiSXN4Z4BnC2q4ii5H-30" value="&lt;p style=&quot;margin: 0px ; margin-top: 6px ; text-align: center&quot;&gt;&lt;span style=&quot;text-align: left&quot;&gt;&lt;b&gt;Request&lt;/b&gt;&lt;/span&gt;&lt;br&gt;&lt;/p&gt;&lt;hr&gt;&lt;p style=&quot;margin: 0px ; margin-left: 8px&quot;&gt;command_name&lt;/p&gt;&lt;p style=&quot;margin: 0px ; margin-left: 8px&quot;&gt;&lt;br&gt;&lt;/p&gt;&lt;p style=&quot;margin: 0px ; margin-left: 8px&quot;&gt;&lt;br&gt;&lt;/p&gt;" style="align=left;overflow=fill;html=1;dropTarget=0;" parent="1" vertex="1">
          <mxGeometry x="860" y="2740" width="160" height="59" as="geometry" />
        </mxCell>
        <mxCell id="IBMiSXN4Z4BnC2q4ii5H-31" value="" style="shape=component;jettyWidth=8;jettyHeight=4;" parent="IBMiSXN4Z4BnC2q4ii5H-30" vertex="1">
          <mxGeometry x="1" width="20" height="20" relative="1" as="geometry">
            <mxPoint x="-24" y="4" as="offset" />
          </mxGeometry>
        </mxCell>
        <mxCell id="IBMiSXN4Z4BnC2q4ii5H-32" value="&lt;p style=&quot;margin: 0px ; margin-top: 6px ; text-align: center&quot;&gt;&lt;span style=&quot;text-align: left&quot;&gt;&lt;b&gt;Response&lt;/b&gt;&lt;/span&gt;&lt;br&gt;&lt;/p&gt;&lt;hr&gt;&lt;p style=&quot;margin: 0px 0px 0px 8px&quot;&gt;response_name&lt;/p&gt;&lt;p style=&quot;margin: 0px ; margin-left: 8px&quot;&gt;return_status&lt;/p&gt;&lt;p style=&quot;margin: 0px ; margin-left: 8px&quot;&gt;&lt;br&gt;&lt;/p&gt;&lt;p style=&quot;margin: 0px ; margin-left: 8px&quot;&gt;&lt;br&gt;&lt;/p&gt;&lt;p style=&quot;margin: 0px ; margin-left: 8px&quot;&gt;&lt;br&gt;&lt;/p&gt;" style="align=left;overflow=fill;html=1;dropTarget=0;" parent="1" vertex="1">
          <mxGeometry x="860" y="2819" width="160" height="70" as="geometry" />
        </mxCell>
        <mxCell id="IBMiSXN4Z4BnC2q4ii5H-33" value="" style="shape=component;jettyWidth=8;jettyHeight=4;" parent="IBMiSXN4Z4BnC2q4ii5H-32" vertex="1">
          <mxGeometry x="1" width="20" height="20" relative="1" as="geometry">
            <mxPoint x="-24" y="4" as="offset" />
          </mxGeometry>
        </mxCell>
        <mxCell id="IBMiSXN4Z4BnC2q4ii5H-34" value="" style="shape=flexArrow;endArrow=classic;html=1;fontSize=10;" parent="1" edge="1">
          <mxGeometry width="50" height="50" relative="1" as="geometry">
            <mxPoint x="1120" y="2853.5" as="sourcePoint" />
            <mxPoint x="1040" y="2853.5" as="targetPoint" />
          </mxGeometry>
        </mxCell>
        <mxCell id="IBMiSXN4Z4BnC2q4ii5H-35" value="" style="shape=flexArrow;endArrow=classic;html=1;fontSize=10;" parent="1" edge="1">
          <mxGeometry width="50" height="50" relative="1" as="geometry">
            <mxPoint x="840" y="2853.5" as="sourcePoint" />
            <mxPoint x="760" y="2853.5" as="targetPoint" />
          </mxGeometry>
        </mxCell>
        <mxCell id="IBMiSXN4Z4BnC2q4ii5H-36" value="" style="shape=flexArrow;endArrow=classic;html=1;fontSize=10;" parent="1" edge="1">
          <mxGeometry width="50" height="50" relative="1" as="geometry">
            <mxPoint x="760" y="2769" as="sourcePoint" />
            <mxPoint x="840" y="2769" as="targetPoint" />
          </mxGeometry>
        </mxCell>
        <mxCell id="IBMiSXN4Z4BnC2q4ii5H-37" value="" style="shape=flexArrow;endArrow=classic;html=1;fontSize=10;" parent="1" edge="1">
          <mxGeometry width="50" height="50" relative="1" as="geometry">
            <mxPoint x="1040" y="2769" as="sourcePoint" />
            <mxPoint x="1120" y="2769" as="targetPoint" />
          </mxGeometry>
        </mxCell>
        <mxCell id="tZAkMe6xcDXeaFTMS7hM-1" value="&lt;p style=&quot;margin: 0px ; margin-top: 4px ; text-align: center&quot;&gt;&lt;b style=&quot;text-align: left&quot;&gt;rollback&lt;/b&gt;&lt;br&gt;&lt;/p&gt;&lt;hr size=&quot;1&quot;&gt;&lt;div style=&quot;height: 2px&quot;&gt;&lt;/div&gt;" style="verticalAlign=top;align=left;overflow=fill;fontSize=12;fontFamily=Helvetica;html=1;" parent="1" vertex="1">
          <mxGeometry x="840" y="1510" width="200" height="330" as="geometry" />
        </mxCell>
        <mxCell id="tZAkMe6xcDXeaFTMS7hM-2" value="&lt;p style=&quot;margin: 0px ; margin-top: 6px ; text-align: center&quot;&gt;&lt;span style=&quot;text-align: left&quot;&gt;&lt;b&gt;Request&lt;/b&gt;&lt;/span&gt;&lt;br&gt;&lt;/p&gt;&lt;hr&gt;&lt;p style=&quot;margin: 0px ; margin-left: 8px&quot;&gt;command_name&lt;br&gt;login&lt;/p&gt;&lt;p style=&quot;margin: 0px ; margin-left: 8px&quot;&gt;password&lt;/p&gt;&lt;p style=&quot;margin: 0px ; margin-left: 8px&quot;&gt;&lt;br&gt;&lt;/p&gt;" style="align=left;overflow=fill;html=1;dropTarget=0;" parent="1" vertex="1">
          <mxGeometry x="860" y="1540" width="160" height="80" as="geometry" />
        </mxCell>
        <mxCell id="tZAkMe6xcDXeaFTMS7hM-3" value="" style="shape=component;jettyWidth=8;jettyHeight=4;" parent="tZAkMe6xcDXeaFTMS7hM-2" vertex="1">
          <mxGeometry x="1" width="20" height="20" relative="1" as="geometry">
            <mxPoint x="-24" y="4" as="offset" />
          </mxGeometry>
        </mxCell>
        <mxCell id="tZAkMe6xcDXeaFTMS7hM-4" value="&lt;p style=&quot;margin: 0px ; margin-top: 6px ; text-align: center&quot;&gt;&lt;span style=&quot;text-align: left&quot;&gt;&lt;b&gt;Response&lt;/b&gt;&lt;/span&gt;&lt;br&gt;&lt;/p&gt;&lt;hr&gt;&lt;p style=&quot;margin: 0px ; margin-left: 8px&quot;&gt;response_name&lt;/p&gt;&lt;p style=&quot;margin: 0px ; margin-left: 8px&quot;&gt;return_status&lt;/p&gt;&lt;p style=&quot;border-color: var(--border-color); margin: 0px 0px 0px 8px;&quot;&gt;transponder_sn&lt;/p&gt;&lt;p style=&quot;border-color: var(--border-color); margin: 0px 0px 0px 8px;&quot;&gt;transponder_pan&lt;/p&gt;&lt;p style=&quot;border-color: var(--border-color); margin: 0px 0px 0px 8px;&quot;&gt;box_id&lt;/p&gt;&lt;p style=&quot;border-color: var(--border-color); margin: 0px 0px 0px 8px;&quot;&gt;pallet_id&lt;/p&gt;&lt;p style=&quot;border-color: var(--border-color); margin: 0px 0px 0px 8px;&quot;&gt;order_id&lt;/p&gt;&lt;p style=&quot;border-color: var(--border-color); margin: 0px 0px 0px 8px;&quot;&gt;issuer_name&lt;/p&gt;&lt;p style=&quot;border-color: var(--border-color); margin: 0px 0px 0px 8px;&quot;&gt;transponder_model&lt;/p&gt;" style="align=left;overflow=fill;html=1;dropTarget=0;" parent="1" vertex="1">
          <mxGeometry x="860" y="1640" width="160" height="180" as="geometry" />
        </mxCell>
        <mxCell id="tZAkMe6xcDXeaFTMS7hM-5" value="" style="shape=component;jettyWidth=8;jettyHeight=4;" parent="tZAkMe6xcDXeaFTMS7hM-4" vertex="1">
          <mxGeometry x="1" width="20" height="20" relative="1" as="geometry">
            <mxPoint x="-24" y="4" as="offset" />
          </mxGeometry>
        </mxCell>
        <mxCell id="tZAkMe6xcDXeaFTMS7hM-6" value="" style="shape=flexArrow;endArrow=classic;html=1;fontSize=10;" parent="1" edge="1">
          <mxGeometry width="50" height="50" relative="1" as="geometry">
            <mxPoint x="839.9999999999998" y="1674.76" as="sourcePoint" />
            <mxPoint x="759.9999999999998" y="1674.76" as="targetPoint" />
          </mxGeometry>
        </mxCell>
        <mxCell id="tZAkMe6xcDXeaFTMS7hM-7" value="" style="shape=flexArrow;endArrow=classic;html=1;fontSize=10;" parent="1" edge="1">
          <mxGeometry width="50" height="50" relative="1" as="geometry">
            <mxPoint x="1120" y="1674.76" as="sourcePoint" />
            <mxPoint x="1040" y="1674.76" as="targetPoint" />
          </mxGeometry>
        </mxCell>
        <mxCell id="tZAkMe6xcDXeaFTMS7hM-8" value="" style="shape=flexArrow;endArrow=classic;html=1;fontSize=10;" parent="1" edge="1">
          <mxGeometry width="50" height="50" relative="1" as="geometry">
            <mxPoint x="760" y="1579.7599999999998" as="sourcePoint" />
            <mxPoint x="840" y="1579.7599999999998" as="targetPoint" />
          </mxGeometry>
        </mxCell>
        <mxCell id="tZAkMe6xcDXeaFTMS7hM-9" value="" style="shape=flexArrow;endArrow=classic;html=1;fontSize=10;" parent="1" edge="1">
          <mxGeometry width="50" height="50" relative="1" as="geometry">
            <mxPoint x="1040" y="1579.7599999999998" as="sourcePoint" />
            <mxPoint x="1120" y="1579.7599999999998" as="targetPoint" />
          </mxGeometry>
        </mxCell>
        <mxCell id="wfuIW9TilBbVlw1HXsoY-1" value="&lt;p style=&quot;text-align: center; margin: 4px 0px 0px;&quot;&gt;&lt;b&gt;get_current_context&lt;/b&gt;&lt;/p&gt;&lt;hr size=&quot;1&quot;&gt;&lt;div style=&quot;height: 2px&quot;&gt;&lt;/div&gt;" style="verticalAlign=top;align=left;overflow=fill;fontSize=12;fontFamily=Helvetica;html=1;strokeColor=#000000;" parent="1" vertex="1">
          <mxGeometry x="840" y="-240" width="200" height="330" as="geometry" />
        </mxCell>
        <mxCell id="wfuIW9TilBbVlw1HXsoY-2" value="&lt;p style=&quot;margin: 0px ; margin-top: 6px ; text-align: center&quot;&gt;&lt;span style=&quot;text-align: left&quot;&gt;&lt;b&gt;Request&lt;/b&gt;&lt;/span&gt;&lt;br&gt;&lt;/p&gt;&lt;hr&gt;&lt;p style=&quot;margin: 0px ; margin-left: 8px&quot;&gt;command_name&lt;br&gt;&lt;/p&gt;&lt;p style=&quot;margin: 0px ; margin-left: 8px&quot;&gt;login&lt;/p&gt;&lt;p style=&quot;margin: 0px ; margin-left: 8px&quot;&gt;password&lt;/p&gt;&lt;p style=&quot;margin: 0px ; margin-left: 8px&quot;&gt;&lt;br&gt;&lt;/p&gt;" style="align=left;overflow=fill;html=1;dropTarget=0;" parent="1" vertex="1">
          <mxGeometry x="860" y="-200" width="160" height="80" as="geometry" />
        </mxCell>
        <mxCell id="wfuIW9TilBbVlw1HXsoY-3" value="" style="shape=component;jettyWidth=8;jettyHeight=4;" parent="wfuIW9TilBbVlw1HXsoY-2" vertex="1">
          <mxGeometry x="1" width="20" height="20" relative="1" as="geometry">
            <mxPoint x="-24" y="4" as="offset" />
          </mxGeometry>
        </mxCell>
        <mxCell id="wfuIW9TilBbVlw1HXsoY-4" value="&lt;p style=&quot;margin: 0px ; margin-top: 6px ; text-align: center&quot;&gt;&lt;span style=&quot;text-align: left&quot;&gt;&lt;b&gt;Response&lt;/b&gt;&lt;/span&gt;&lt;br&gt;&lt;/p&gt;&lt;hr&gt;&lt;p style=&quot;margin: 0px 0px 0px 8px&quot;&gt;response_name&lt;/p&gt;&lt;p style=&quot;margin: 0px ; margin-left: 8px&quot;&gt;&lt;span style=&quot;background-color: initial;&quot;&gt;return_status&lt;/span&gt;&lt;br&gt;&lt;/p&gt;&lt;p style=&quot;border-color: var(--border-color); margin: 0px 0px 0px 8px;&quot;&gt;transponder_sn&lt;/p&gt;&lt;p style=&quot;border-color: var(--border-color); margin: 0px 0px 0px 8px;&quot;&gt;transponder_pan&lt;/p&gt;&lt;p style=&quot;border-color: var(--border-color); margin: 0px 0px 0px 8px;&quot;&gt;box_id&lt;/p&gt;&lt;p style=&quot;border-color: var(--border-color); margin: 0px 0px 0px 8px;&quot;&gt;pallet_id&lt;/p&gt;&lt;p style=&quot;border-color: var(--border-color); margin: 0px 0px 0px 8px;&quot;&gt;order_id&lt;/p&gt;&lt;p style=&quot;border-color: var(--border-color); margin: 0px 0px 0px 8px;&quot;&gt;issuer_name&lt;/p&gt;&lt;p style=&quot;border-color: var(--border-color); margin: 0px 0px 0px 8px;&quot;&gt;transponder_model&lt;/p&gt;&lt;p style=&quot;margin: 0px ; margin-left: 8px&quot;&gt;&lt;br&gt;&lt;/p&gt;&lt;p style=&quot;margin: 0px ; margin-left: 8px&quot;&gt;&lt;br&gt;&lt;/p&gt;&lt;p style=&quot;margin: 0px ; margin-left: 8px&quot;&gt;&lt;br&gt;&lt;/p&gt;" style="align=left;overflow=fill;html=1;dropTarget=0;" parent="1" vertex="1">
          <mxGeometry x="860" y="-100" width="160" height="170" as="geometry" />
        </mxCell>
        <mxCell id="wfuIW9TilBbVlw1HXsoY-5" value="" style="shape=component;jettyWidth=8;jettyHeight=4;" parent="wfuIW9TilBbVlw1HXsoY-4" vertex="1">
          <mxGeometry x="1" width="20" height="20" relative="1" as="geometry">
            <mxPoint x="-24" y="4" as="offset" />
          </mxGeometry>
        </mxCell>
        <mxCell id="wfuIW9TilBbVlw1HXsoY-6" value="" style="shape=flexArrow;endArrow=classic;html=1;fontSize=10;" parent="1" edge="1">
          <mxGeometry width="50" height="50" relative="1" as="geometry">
            <mxPoint x="1120" y="-65.26000000000022" as="sourcePoint" />
            <mxPoint x="1040" y="-65.26000000000022" as="targetPoint" />
          </mxGeometry>
        </mxCell>
        <mxCell id="wfuIW9TilBbVlw1HXsoY-7" value="" style="shape=flexArrow;endArrow=classic;html=1;fontSize=10;" parent="1" edge="1">
          <mxGeometry width="50" height="50" relative="1" as="geometry">
            <mxPoint x="840" y="-65.26000000000022" as="sourcePoint" />
            <mxPoint x="760" y="-65.26000000000022" as="targetPoint" />
          </mxGeometry>
        </mxCell>
        <mxCell id="wfuIW9TilBbVlw1HXsoY-8" value="" style="shape=flexArrow;endArrow=classic;html=1;fontSize=10;" parent="1" edge="1">
          <mxGeometry width="50" height="50" relative="1" as="geometry">
            <mxPoint x="760" y="-160.59000000000015" as="sourcePoint" />
            <mxPoint x="840" y="-160.59000000000015" as="targetPoint" />
          </mxGeometry>
        </mxCell>
        <mxCell id="wfuIW9TilBbVlw1HXsoY-9" value="" style="shape=flexArrow;endArrow=classic;html=1;fontSize=10;" parent="1" edge="1">
          <mxGeometry width="50" height="50" relative="1" as="geometry">
            <mxPoint x="1040" y="-160.59000000000015" as="sourcePoint" />
            <mxPoint x="1120" y="-160.59000000000015" as="targetPoint" />
          </mxGeometry>
        </mxCell>
      </root>
    </mxGraphModel>
  </diagram>
</mxfile>
